# xmcd
#
# Track frame offsets: 
#        182
#        21862
#        32232
#        48635
#        58830
#        75775
#        102095
#        128575
#        148045
#        161690
#
# Disc length: 2498 seconds
#
# Revision: 6
# Processed by: cddbd v1.5.2PL0 Copyright (c) Steve Scherf et al.
# Submitted via: ExactAudioCopy v0.99pb5
#
DISCID=7d09c00a
DTITLE=R.L. Burnside - A Ass Pocket Of Whiskey
DYEAR=1996
DGENRE=Blues
TTITLE0=Goin' Down South
TTITLE1=Boogie Chillen
TTITLE2=Poor Boy
TTITLE3=2 Brothers
TTITLE4=Snake Drive
TTITLE5=Shake 'em On Down
TTITLE6=The Criminal Inside Me
TTITLE7=Walkin' Blues
TTITLE8=Tojo Told Hitler
TTITLE9=Have You Ever Been Lonely?
EXTD=
EXTT0=
EXTT1=
EXTT2=
EXTT3=
EXTT4=
EXTT5=
EXTT6=
EXTT7=
EXTT8=
EXTT9=
PLAYORDER=
